<?xml version="1.0" encoding="UTF-8"?> <svg xmlns="http://www.w3.org/2000/svg" id="Ebene_1" viewBox="0 0 425.2 91.73"><defs><style>.cls-1{fill:#ffcf02;}.cls-2{fill:#283f37;}</style></defs><polygon class="cls-1" points="43.8 0 0 0 57.02 91.73 90.08 45.86 71.17 45.86 43.8 0"></polygon><polygon class="cls-1" points="120.46 91.73 164.31 91.73 105.51 0 71.93 41.76 90.84 41.76 120.46 91.73"></polygon><path class="cls-2" d="M203.62,65.08l-18.54-24.34v24.34h-8.32V26.78h7.77l17.94,23.58v-23.58h8.31v38.29h-7.17Z"></path><path class="cls-2" d="M220.01,65.08V26.78h28.88v7.5h-20.51v7.77h18.05v7.49h-18.05v8.04h20.79v7.5h-29.16Z"></path><path class="cls-2" d="M280.59,65.08l-8.59-13.13-8.64,13.13h-9.57l13.35-19.47-12.8-18.82h9.85l8.04,12.42,8.1-12.42h9.57l-12.8,18.71,13.35,19.59h-9.85Z"></path><path class="cls-2" d="M312.61,65.73c-11.82,0-20.3-8.81-20.3-19.69v-.11c0-10.89,8.59-19.8,20.41-19.8s20.29,8.81,20.29,19.69v.11c0,10.89-8.59,19.8-20.4,19.8ZM324.21,45.93c0-6.57-4.82-12.04-11.6-12.04s-11.49,5.36-11.49,11.92v.11c0,6.56,4.82,12.03,11.6,12.03s11.49-5.36,11.49-11.92v-.11Z"></path><path class="cls-2" d="M357.71,65.35h-7.44l-15.48-38.57h9.3l10.01,26.97,10.01-26.97h9.08l-15.48,38.57Z"></path><path class="cls-2" d="M379.51,65.08V26.78h8.43v38.29h-8.43Z"></path><path class="cls-2" d="M411.14,65.63c-5.8,0-11.65-2.03-16.25-6.13l4.98-5.96c3.45,2.84,7.06,4.65,11.43,4.65,3.45,0,5.53-1.37,5.53-3.61v-.11c0-2.13-1.31-3.23-7.72-4.87-7.71-1.97-12.69-4.1-12.69-11.71v-.11c0-6.95,5.58-11.55,13.4-11.55,5.58,0,10.34,1.75,14.22,4.87l-4.38,6.35c-3.39-2.35-6.73-3.77-9.96-3.77s-4.92,1.47-4.92,3.34v.11c0,2.52,1.64,3.34,8.26,5.03,7.77,2.03,12.14,4.82,12.14,11.49v.11c0,7.6-5.8,11.87-14.06,11.87Z"></path></svg> 